name rise32.9588peak41.5061fall63.4684.mot
datacolumns 19
datarows 18
range 22.01492000000000 22.04325200000000
endheader
time	ground_force1_vx	ground_force1_vy	ground_force1_vz	ground_force1_px	ground_force1_py	ground_force1_pz	ground_force2_vx	ground_force2_vy	ground_force2_vz	ground_force2_px	ground_force2_py	ground_force2_pz	ground_torque1_x	ground_torque1_y	ground_torque1_z	ground_torque2_x	ground_torque2_y	ground_torque2_z	
22.01492000000000	17.86559800000000	705.09441300000003	34.38685000000000	0.19442400000000	0.00000000000000	0.08947400000000	0.00000000000000	0.00000000000000	0.00000000000000	0.00000000000000	0.00000000000000	0.00000000000000	0.00000000000000	10.08526900000000	0.00000000000000	0.00000000000000	0.00000000000000	0.00000000000000	
22.01658400000000	17.54584100000000	705.96527700000001	34.35566100000000	0.19351000000000	0.00000000000000	0.08945100000000	0.00000000000000	0.00000000000000	0.00000000000000	0.00000000000000	0.00000000000000	0.00000000000000	0.00000000000000	10.08708200000000	0.00000000000000	0.00000000000000	0.00000000000000	0.00000000000000	
22.01825000000000	17.21342700000000	706.86893199999997	34.32954600000000	0.19258000000000	0.00000000000000	0.08942900000000	0.00000000000000	0.00000000000000	0.00000000000000	0.00000000000000	0.00000000000000	0.00000000000000	0.00000000000000	10.09303400000000	0.00000000000000	0.00000000000000	0.00000000000000	0.00000000000000	
22.01991500000000	16.86812300000000	707.80389600000001	34.30833400000000	0.19163600000000	0.00000000000000	0.08940900000000	0.00000000000000	0.00000000000000	0.00000000000000	0.00000000000000	0.00000000000000	0.00000000000000	0.00000000000000	10.10309300000000	0.00000000000000	0.00000000000000	0.00000000000000	0.00000000000000	
22.02158000000000	16.50973500000000	708.76873999999998	34.29185400000000	0.19067700000000	0.00000000000000	0.08939000000000	0.00000000000000	0.00000000000000	0.00000000000000	0.00000000000000	0.00000000000000	0.00000000000000	0.00000000000000	10.11722000000000	0.00000000000000	0.00000000000000	0.00000000000000	0.00000000000000	
22.02325100000000	16.13810800000000	709.76208899999995	34.27993400000000	0.18970400000000	0.00000000000000	0.08937300000000	0.00000000000000	0.00000000000000	0.00000000000000	0.00000000000000	0.00000000000000	0.00000000000000	0.00000000000000	10.13537500000000	0.00000000000000	0.00000000000000	0.00000000000000	0.00000000000000	
22.02491700000000	15.75312700000000	710.78263100000004	34.27240200000000	0.18871800000000	0.00000000000000	0.08935700000000	0.00000000000000	0.00000000000000	0.00000000000000	0.00000000000000	0.00000000000000	0.00000000000000	0.00000000000000	10.15751000000000	0.00000000000000	0.00000000000000	0.00000000000000	0.00000000000000	
22.02658700000000	15.35471800000000	711.82911899999999	34.26908900000000	0.18771900000000	0.00000000000000	0.08934200000000	0.00000000000000	0.00000000000000	0.00000000000000	0.00000000000000	0.00000000000000	0.00000000000000	0.00000000000000	10.18357400000000	0.00000000000000	0.00000000000000	0.00000000000000	0.00000000000000	
22.02825300000000	14.94284500000000	712.90037099999995	34.26982600000000	0.18670900000000	0.00000000000000	0.08932900000000	0.00000000000000	0.00000000000000	0.00000000000000	0.00000000000000	0.00000000000000	0.00000000000000	0.00000000000000	10.21351100000000	0.00000000000000	0.00000000000000	0.00000000000000	0.00000000000000	
22.02991600000000	14.51750900000000	713.99527599999999	34.27444700000000	0.18568800000000	0.00000000000000	0.08931700000000	0.00000000000000	0.00000000000000	0.00000000000000	0.00000000000000	0.00000000000000	0.00000000000000	0.00000000000000	10.24726000000000	0.00000000000000	0.00000000000000	0.00000000000000	0.00000000000000	
22.03158400000000	14.07875400000000	715.11279700000000	34.28278800000000	0.18465600000000	0.00000000000000	0.08930600000000	0.00000000000000	0.00000000000000	0.00000000000000	0.00000000000000	0.00000000000000	0.00000000000000	0.00000000000000	10.28475300000000	0.00000000000000	0.00000000000000	0.00000000000000	0.00000000000000	
22.03324800000000	13.62665900000000	716.25196900000003	34.29468900000000	0.18361600000000	0.00000000000000	0.08929600000000	0.00000000000000	0.00000000000000	0.00000000000000	0.00000000000000	0.00000000000000	0.00000000000000	0.00000000000000	10.32592100000000	0.00000000000000	0.00000000000000	0.00000000000000	0.00000000000000	
22.03492000000000	13.16133900000000	717.41189999999995	34.30999300000000	0.18256800000000	0.00000000000000	0.08928700000000	0.00000000000000	0.00000000000000	0.00000000000000	0.00000000000000	0.00000000000000	0.00000000000000	0.00000000000000	10.37068700000000	0.00000000000000	0.00000000000000	0.00000000000000	0.00000000000000	
22.03658400000000	12.68294900000000	718.59177699999998	34.32854800000000	0.18151200000000	0.00000000000000	0.08927900000000	0.00000000000000	0.00000000000000	0.00000000000000	0.00000000000000	0.00000000000000	0.00000000000000	0.00000000000000	10.41897000000000	0.00000000000000	0.00000000000000	0.00000000000000	0.00000000000000	
22.03825100000000	12.19167600000000	719.79085999999995	34.35020700000000	0.18045000000000	0.00000000000000	0.08927200000000	0.00000000000000	0.00000000000000	0.00000000000000	0.00000000000000	0.00000000000000	0.00000000000000	0.00000000000000	10.47068300000000	0.00000000000000	0.00000000000000	0.00000000000000	0.00000000000000	
22.03991400000000	11.68774500000000	721.00848299999996	34.37482800000000	0.17938300000000	0.00000000000000	0.08926500000000	0.00000000000000	0.00000000000000	0.00000000000000	0.00000000000000	0.00000000000000	0.00000000000000	0.00000000000000	10.52573500000000	0.00000000000000	0.00000000000000	0.00000000000000	0.00000000000000	
22.04158600000000	11.17141200000000	722.24405500000000	34.40227400000000	0.17831200000000	0.00000000000000	0.08926000000000	0.00000000000000	0.00000000000000	0.00000000000000	0.00000000000000	0.00000000000000	0.00000000000000	0.00000000000000	10.58402900000000	0.00000000000000	0.00000000000000	0.00000000000000	0.00000000000000	
22.04325200000000	10.64296700000000	723.49705600000004	34.43241400000000	0.17723800000000	0.00000000000000	0.08925500000000	0.00000000000000	0.00000000000000	0.00000000000000	0.00000000000000	0.00000000000000	0.00000000000000	0.00000000000000	10.64546500000000	0.00000000000000	0.00000000000000	0.00000000000000	0.00000000000000	
